<svg width="20" height="20" viewBox="0 0 20 20" fill="none" xmlns="http://www.w3.org/2000/svg">
<path d="M9.99984 17.5C9.19996 17.5 8.48103 17.1054 8.07462 16.4446C7.90622 16.1692 8.00337 15.8162 8.29321 15.6554C8.58143 15.4954 8.95384 15.5877 9.12385 15.8631C9.49546 16.4685 10.5042 16.4685 10.8758 15.8631C11.045 15.5877 11.4174 15.4954 11.7065 15.6554C11.9963 15.8154 12.0943 16.1692 11.9251 16.4446C11.5186 17.1054 10.7997 17.5 9.99984 17.5ZM17.0231 14.8654C17.1243 14.6654 17.0959 14.4285 16.951 14.2554C16.9356 14.2377 15.4606 12.4531 15.4606 10.3846V7.68846C15.4606 4.82769 13.0107 2.5 9.99984 2.5C6.98895 2.5 4.53911 4.82769 4.53911 7.68846V10.3846C4.53911 12.4531 3.06403 14.2377 3.04865 14.2554C2.90373 14.4285 2.8754 14.6662 2.97659 14.8654C3.07779 15.0646 3.28991 15.1923 3.52307 15.1923H16.4766C16.7098 15.1923 16.9219 15.0646 17.0231 14.8654ZM5.75351 10.3846V7.68846C5.75351 5.46384 7.65849 3.65385 9.99984 3.65385C12.3412 3.65385 14.2462 5.46384 14.2462 7.68846V10.3846C14.2462 11.8738 14.8534 13.1985 15.3537 14.0385H4.64517C5.14631 13.1985 5.75351 11.8738 5.75351 10.3846Z" fill="#172025"/>
<ellipse cx="14.9998" cy="4.16667" rx="3.33333" ry="3.33333" fill="#E53935"/>
</svg>
