<svg width="23" height="24" viewBox="0 0 23 24" fill="none" xmlns="http://www.w3.org/2000/svg">
<path d="M6.6 21.05V9.8H8.025C8.35833 9.8 8.67917 9.82917 8.9875 9.8875C9.29583 9.94583 9.6 10.0333 9.9 10.15L15.4 12.2C15.9333 12.4 16.4083 12.6875 16.825 13.0625C17.2417 13.4375 17.45 13.9 17.45 14.45C17.45 14.7 17.3625 14.9125 17.1875 15.0875C17.0125 15.2625 16.8 15.35 16.55 15.35H14.275C13.8917 15.35 13.5125 15.325 13.1375 15.275C12.7625 15.225 12.3917 15.1333 12.025 15L10.275 14.4L9.825 15.675L11.95 16.55C12.2833 16.6833 12.6208 16.7583 12.9625 16.775C13.3042 16.7917 13.65 16.8 14 16.8H19.525C20.4583 16.8 21.2375 17.1458 21.8625 17.8375C22.4875 18.5292 22.8 19.35 22.8 20.3L14 23.05L6.6 21.05ZM0 22.8V9.8H4.6V22.8H0ZM16.15 11.425L11.65 7.375C11.0833 6.875 10.6 6.30833 10.2 5.675C9.8 5.04167 9.6 4.35 9.6 3.6C9.6 2.58333 9.97083 1.72917 10.7125 1.0375C11.4542 0.345833 12.35 0 13.4 0C13.9167 0 14.4125 0.1 14.8875 0.3C15.3625 0.5 15.7833 0.783333 16.15 1.15C16.5333 0.766667 16.9625 0.479167 17.4375 0.2875C17.9125 0.0958333 18.4167 0 18.95 0C19.9833 0 20.8667 0.345833 21.6 1.0375C22.3333 1.72917 22.7 2.58333 22.7 3.6C22.7 4.35 22.5 5.04167 22.1 5.675C21.7 6.30833 21.2167 6.875 20.65 7.375L16.15 11.425Z" fill="#FACC15"/>
</svg>
