<svg width="12" height="12" viewBox="0 0 12 12" fill="none" xmlns="http://www.w3.org/2000/svg">
<path d="M11.5502 2.505L9.49522 0.45C9.22702 0.198072 8.87556 0.0535194 8.50772 0.0438393C8.13988 0.0341592 7.78131 0.160027 7.50022 0.3975L0.750223 7.1475C0.507797 7.39197 0.356851 7.7124 0.322722 8.055L0.000222526 11.1825C-0.00988075 11.2923 0.00437327 11.4031 0.0419684 11.5068C0.0795636 11.6105 0.139574 11.7046 0.217723 11.7825C0.287803 11.852 0.370915 11.907 0.462293 11.9443C0.553671 11.9817 0.651518 12.0006 0.750223 12H0.817723L3.94522 11.715C4.28782 11.6809 4.60825 11.5299 4.85272 11.2875L11.6027 4.5375C11.8647 4.26073 12.0063 3.89138 11.9965 3.5104C11.9866 3.12942 11.8261 2.76788 11.5502 2.505ZM9.00022 5.01L6.99022 3L8.45272 1.5L10.5002 3.5475L9.00022 5.01Z" fill="white"/>
</svg>
