<svg width="24" height="24" viewBox="0 0 24 24" fill="none" xmlns="http://www.w3.org/2000/svg">
<mask id="mask0_492_1091" style="mask-type:alpha" maskUnits="userSpaceOnUse" x="0" y="0" width="24" height="24">
<rect width="24" height="24" fill="#D9D9D9"/>
</mask>
<g mask="url(#mask0_492_1091)">
<path d="M11 4V0H13V4H11ZM6.575 5.425L3.575 2.425L5 1L8 4L6.575 5.425ZM6 18H9C9.28333 18 9.52083 17.9042 9.7125 17.7125C9.90417 17.5208 10 17.2833 10 17C10 16.7167 9.90417 16.4792 9.7125 16.2875C9.52083 16.0958 9.28333 16 9 16H6V18ZM15 18H18V16H15C14.7167 16 14.4792 16.0958 14.2875 16.2875C14.0958 16.4792 14 16.7167 14 17C14 17.2833 14.0958 17.5208 14.2875 17.7125C14.4792 17.9042 14.7167 18 15 18ZM17.275 11.25L20.75 7.8L19.7 6.75L17.275 9.125L16.3 8.15L15.25 9.225L17.275 11.25ZM18 14C16.6167 14 15.4375 13.5125 14.4625 12.5375C13.4875 11.5625 13 10.3833 13 9C13 7.61667 13.4875 6.4375 14.4625 5.4625C15.4375 4.4875 16.6167 4 18 4C19.3833 4 20.5625 4.4875 21.5375 5.4625C22.5125 6.4375 23 7.61667 23 9C23 10.3833 22.5125 11.5625 21.5375 12.5375C20.5625 13.5125 19.3833 14 18 14ZM4 23C3.71667 23 3.47917 22.9042 3.2875 22.7125C3.09583 22.5208 3 22.2833 3 22V14L5.1 8C5.2 7.7 5.37917 7.45833 5.6375 7.275C5.89583 7.09167 6.18333 7 6.5 7H9V5H12.275C11.875 5.56667 11.5625 6.1875 11.3375 6.8625C11.1125 7.5375 11 8.25 11 9H6.85L5.375 13H12.275C12.9417 13.95 13.775 14.6875 14.775 15.2125C15.775 15.7375 16.85 16 18 16C18.5333 16 19.0458 15.9458 19.5375 15.8375C20.0292 15.7292 20.5167 15.5583 21 15.325V22C21 22.2833 20.9042 22.5208 20.7125 22.7125C20.5208 22.9042 20.2833 23 20 23H19C18.7167 23 18.4792 22.9042 18.2875 22.7125C18.0958 22.5208 18 22.2833 18 22V21H6V22C6 22.2833 5.90417 22.5208 5.7125 22.7125C5.52083 22.9042 5.28333 23 5 23H4Z" fill="#5B646B"/>
</g>
</svg>
