<svg width="360" height="384" viewBox="0 0 360 384" fill="none" xmlns="http://www.w3.org/2000/svg">
<rect width="360" height="384" rx="11" fill="#F6F8FF"/>
<path fill-rule="evenodd" clip-rule="evenodd" d="M118 227H209C209.515 227 210.017 226.944 210.5 226.839C210.983 226.944 211.485 227 212 227H264C267.866 227 271 223.866 271 220C271 216.134 267.866 213 264 213H258C254.134 213 251 209.866 251 206C251 202.134 254.134 199 258 199H277C280.866 199 284 195.866 284 192C284 188.134 280.866 185 277 185H255C258.866 185 262 181.866 262 178C262 174.134 258.866 171 255 171H191C194.866 171 198 167.866 198 164C198 160.134 194.866 157 191 157H134C130.134 157 127 160.134 127 164C127 167.866 130.134 171 134 171H94C90.134 171 87 174.134 87 178C87 181.866 90.134 185 94 185H119C122.866 185 126 188.134 126 192C126 195.866 122.866 199 119 199H79C75.134 199 72 202.134 72 206C72 209.866 75.134 213 79 213H118C114.134 213 111 216.134 111 220C111 223.866 114.134 227 118 227ZM281 227C284.866 227 288 223.866 288 220C288 216.134 284.866 213 281 213C277.134 213 274 216.134 274 220C274 223.866 277.134 227 281 227Z" fill="#F6F8FF"/>
<path d="M147 234.25C147.69 234.25 148.25 233.69 148.25 233C148.25 232.31 147.69 231.75 147 231.75V234.25ZM148.537 190.052L148.453 191.299L150.05 191.407L149.767 189.831L148.537 190.052ZM214.239 173.169L213.054 173.567L213.372 174.517L214.369 174.413L214.239 173.169ZM220 232.978L219.901 231.732L218.75 231.824V232.978H220ZM220 233V234.25H221.25V233H220ZM163.508 231.75C162.817 231.75 162.258 232.31 162.258 233C162.258 233.69 162.817 234.25 163.508 234.25V231.75ZM158.996 234.25C159.686 234.25 160.246 233.69 160.246 233C160.246 232.31 159.686 231.75 158.996 231.75V234.25ZM152.031 231.75C151.341 231.75 150.781 232.31 150.781 233C150.781 233.69 151.341 234.25 152.031 234.25V231.75ZM147 231.75C135.513 231.75 126.25 222.657 126.25 211.5H123.75C123.75 224.091 134.187 234.25 147 234.25V231.75ZM126.25 211.5C126.25 200.343 135.513 191.25 147 191.25V188.75C134.187 188.75 123.75 198.909 123.75 211.5H126.25ZM147 191.25C147.489 191.25 147.973 191.266 148.453 191.299L148.621 188.804C148.085 188.768 147.545 188.75 147 188.75V191.25ZM149.767 189.831C149.428 187.939 149.25 185.991 149.25 184H146.75C146.75 186.14 146.941 188.236 147.307 190.273L149.767 189.831ZM149.25 184C149.25 165.913 163.913 151.25 182 151.25V148.75C162.532 148.75 146.75 164.532 146.75 184H149.25ZM182 151.25C196.438 151.25 208.697 160.594 213.054 173.567L215.424 172.772C210.735 158.81 197.544 148.75 182 148.75V151.25ZM214.369 174.413C215.397 174.305 216.442 174.25 217.5 174.25V171.75C216.355 171.75 215.223 171.81 214.109 171.926L214.369 174.413ZM217.5 174.25C233.674 174.25 246.75 187.141 246.75 203H249.25C249.25 185.722 235.015 171.75 217.5 171.75V174.25ZM246.75 203C246.75 218.07 234.945 230.532 219.901 231.732L220.099 234.224C236.406 232.923 249.25 219.411 249.25 203H246.75ZM218.75 232.978V233H221.25V232.978H218.75ZM220 231.75H163.508V234.25H220V231.75ZM158.996 231.75H152.031V234.25H158.996V231.75Z" fill="#2F88CE"/>
<path fill-rule="evenodd" clip-rule="evenodd" d="M171.612 157.343C171.612 189.566 200.633 216.118 238 219.703C233.317 225.461 226.086 229.367 217.847 229.981V230H150.743C142.601 230 129 226.57 129 211.548C129 196.527 139.574 193.097 150.743 193.097C151.218 193.097 151.689 193.112 152.156 193.141C151.832 191.456 151.775 189.718 151.662 187.947C150.904 175.984 156.123 160.907 171.63 156C171.618 156.447 171.612 156.894 171.612 157.343Z" fill="#F6F8FF"/>
<path d="M192.001 162C198.51 163.723 203.649 168.813 205.441 175.293" stroke="#2F88CE" stroke-width="2.5" stroke-linecap="round"/>
<path d="M163 194.5C163 198.09 166.134 201 170 201C173.866 201 177 198.09 177 194.5" stroke="#2F88CE" stroke-width="2.5" stroke-linecap="round"/>
<path d="M192 194.5C192 198.09 195.134 201 199 201C202.866 201 206 198.09 206 194.5" stroke="#2F88CE" stroke-width="2.5" stroke-linecap="round"/>
<path d="M177 213H191.5" stroke="#2F88CE" stroke-width="2.5" stroke-linecap="round"/>
<path fill-rule="evenodd" clip-rule="evenodd" d="M124.158 153.292H112.212V155.668H120.66L111.508 166.756V169H124.378V166.624H115.006L124.158 155.382V153.292ZM137.57 168.576H128.882V170.304H135.026L128.37 178.368V180H137.73V178.272H130.914L137.57 170.096V168.576Z" fill="#2F88CE"/>
</svg>
