<svg width="16" height="16" viewBox="0 0 16 16" fill="none" xmlns="http://www.w3.org/2000/svg">
<path d="M7.99935 15.5C7.19947 15.5 6.48054 15.1054 6.07413 14.4446C5.90573 14.1692 6.00289 13.8162 6.29272 13.6554C6.58094 13.4954 6.95335 13.5877 7.12337 13.8631C7.49497 14.4685 8.50373 14.4685 8.87533 13.8631C9.04454 13.5877 9.41695 13.4954 9.70598 13.6554C9.99581 13.8154 10.0938 14.1692 9.92457 14.4446C9.51816 15.1054 8.79923 15.5 7.99935 15.5ZM15.0226 12.8654C15.1238 12.6654 15.0955 12.4285 14.9505 12.2554C14.9352 12.2377 13.4601 10.4531 13.4601 8.38462V5.68846C13.4601 2.82769 11.0102 0.5 7.99935 0.5C4.98846 0.5 2.53863 2.82769 2.53863 5.68846V8.38462C2.53863 10.4531 1.06355 12.2377 1.04816 12.2554C0.903247 12.4285 0.874907 12.6662 0.976107 12.8654C1.07731 13.0646 1.28942 13.1923 1.52259 13.1923H14.4761C14.7093 13.1923 14.9214 13.0646 15.0226 12.8654ZM3.75302 8.38462V5.68846C3.75302 3.46384 5.658 1.65385 7.99935 1.65385C10.3407 1.65385 12.2457 3.46384 12.2457 5.68846V8.38462C12.2457 9.87385 12.8529 11.1985 13.3532 12.0385H2.64469C3.14583 11.1985 3.75302 9.87385 3.75302 8.38462Z" fill="#172025"/>
</svg>
