<svg width="360" height="384" viewBox="0 0 360 384" fill="none" xmlns="http://www.w3.org/2000/svg">
<rect width="360" height="384" rx="11" fill="#F6F8FF"/>
<path fill-rule="evenodd" clip-rule="evenodd" d="M262 157C265.866 157 269 160.134 269 164C269 167.866 265.866 171 262 171H222C225.866 171 229 174.134 229 178C229 181.866 225.866 185 222 185H244C247.866 185 251 188.134 251 192C251 195.866 247.866 199 244 199H233.826C228.952 199 225 202.134 225 206C225 208.577 227 210.911 231 213C234.866 213 238 216.134 238 220C238 223.866 234.866 227 231 227H148C144.134 227 141 223.866 141 220C141 216.134 144.134 213 148 213H109C105.134 213 102 209.866 102 206C102 202.134 105.134 199 109 199H149C152.866 199 156 195.866 156 192C156 188.134 152.866 185 149 185H124C120.134 185 117 181.866 117 178C117 174.134 120.134 171 124 171H164C160.134 171 157 167.866 157 164C157 160.134 160.134 157 164 157H262ZM262 185C265.866 185 269 188.134 269 192C269 195.866 265.866 199 262 199C258.134 199 255 195.866 255 192C255 188.134 258.134 185 262 185Z" fill="#F6F8FF"/>
<path d="M209.912 155.83C209.818 155.146 209.187 154.668 208.503 154.762C207.82 154.855 207.341 155.486 207.435 156.17L209.912 155.83ZM217.975 223.843L219.216 223.69C219.215 223.685 219.214 223.679 219.214 223.673L217.975 223.843ZM218.811 230.649L220.052 230.497L218.811 230.649ZM215.328 235.107L215.481 236.347L215.328 235.107ZM156.768 242.297L156.92 243.538L156.768 242.297ZM152.31 238.814L153.551 238.662L152.31 238.814ZM145.057 163.155L145.196 164.398L145.057 163.155ZM150.054 163.853C150.74 163.776 151.234 163.157 151.157 162.471C151.08 161.785 150.462 161.291 149.776 161.368L150.054 163.853ZM153.704 160.928C153.018 161.005 152.524 161.623 152.601 162.309C152.678 162.995 153.297 163.489 153.983 163.412L153.704 160.928ZM158.57 162.897C159.256 162.82 159.75 162.202 159.673 161.516C159.596 160.83 158.977 160.336 158.291 160.413L158.57 162.897ZM207.435 156.17L216.737 224.012L219.214 223.673L209.912 155.83L207.435 156.17ZM216.734 223.995L217.57 230.801L220.052 230.497L219.216 223.69L216.734 223.995ZM217.57 230.801C217.755 232.309 216.683 233.681 215.176 233.866L215.481 236.347C218.358 235.994 220.405 233.375 220.052 230.497L217.57 230.801ZM215.176 233.866L156.616 241.056L156.92 243.538L215.481 236.347L215.176 233.866ZM156.616 241.056C155.108 241.241 153.736 240.169 153.551 238.662L151.07 238.967C151.423 241.844 154.042 243.891 156.92 243.538L156.616 241.056ZM153.551 238.662L144.535 165.234L142.054 165.539L151.07 238.967L153.551 238.662ZM144.535 165.234C144.485 164.823 144.777 164.449 145.188 164.399L144.884 161.917C143.102 162.136 141.835 163.757 142.054 165.539L144.535 165.234ZM145.188 164.399C145.191 164.398 145.193 164.398 145.196 164.398L144.917 161.913C144.906 161.914 144.895 161.916 144.884 161.917L145.188 164.399ZM145.196 164.398L150.054 163.853L149.776 161.368L144.917 161.913L145.196 164.398ZM153.983 163.412L158.57 162.897L158.291 160.413L153.704 160.928L153.983 163.412Z" fill="#2F88CE"/>
<path fill-rule="evenodd" clip-rule="evenodd" d="M206.141 160.269L214.56 221.753L215.318 227.921C215.562 229.908 214.168 231.714 212.204 231.956L159.762 238.395C157.798 238.636 156.009 237.22 155.765 235.233L147.615 168.857C147.48 167.76 148.26 166.762 149.356 166.628L155.844 165.831" fill="#F6F8FF"/>
<path d="M162.922 146C162.922 144.481 164.153 143.25 165.672 143.25H211.229C211.958 143.25 212.657 143.539 213.173 144.055L226.616 157.49C227.132 158.006 227.422 158.705 227.422 159.435V222C227.422 223.519 226.191 224.75 224.672 224.75H165.672C164.153 224.75 162.922 223.519 162.922 222V146Z" stroke="#2F88CE" stroke-width="2.5"/>
<path d="M211.672 144.403V156C211.672 157.657 213.015 159 214.672 159H222.605" stroke="#2F88CE" stroke-width="2.5" stroke-linecap="round" stroke-linejoin="round"/>
<path d="M173 210H199M173 159H199H173ZM173 171H216H173ZM173 184H216H173ZM173 197H216H173Z" stroke="#2F88CE" stroke-width="2.5" stroke-linecap="round" stroke-linejoin="round"/>
</svg>
