<svg width="121" height="120" viewBox="0 0 121 120" fill="none" xmlns="http://www.w3.org/2000/svg">
<circle opacity="0.1" cx="60.5" cy="60" r="60" fill="#FACC15"/>
<circle cx="60.5" cy="60" r="50" fill="#FACC15"/>
<path d="M60.5006 71.0385C61.0346 71.0385 61.4822 70.8579 61.8434 70.4967C62.2046 70.1355 62.3852 69.6879 62.3852 69.1539C62.3852 68.62 62.2046 68.1724 61.8434 67.8112C61.4822 67.45 61.0346 67.2694 60.5006 67.2694C59.9666 67.2694 59.519 67.45 59.1578 67.8112C58.7966 68.1724 58.616 68.62 58.616 69.1539C58.616 69.6879 58.7966 70.1355 59.1578 70.4967C59.519 70.8579 59.9666 71.0385 60.5006 71.0385ZM58.7507 62.5129H62.2505V48.5129H58.7507V62.5129ZM60.5045 82.1667C57.4387 82.1667 54.5569 81.5849 51.8593 80.4214C49.1616 79.2578 46.815 77.6787 44.8195 75.6841C42.8239 73.6895 41.2441 71.3439 40.0801 68.6474C38.916 65.951 38.334 63.0699 38.334 60.004C38.334 56.9382 38.9158 54.0564 40.0793 51.3588C41.2429 48.6611 42.822 46.3145 44.8166 44.319C46.8112 42.3235 49.1568 40.7437 51.8533 39.5796C54.5497 38.4155 57.4308 37.8335 60.4967 37.8335C63.5625 37.8335 66.4443 38.4153 69.1419 39.5788C71.8396 40.7424 74.1862 42.3215 76.1817 44.3161C78.1772 46.3107 79.757 48.6563 80.9211 51.3528C82.0852 54.0492 82.6672 56.9304 82.6672 59.9962C82.6672 63.062 82.0854 65.9438 80.9219 68.6414C79.7583 71.3391 78.1792 73.6857 76.1846 75.6812C74.19 77.6768 71.8444 79.2566 69.1479 80.4206C66.4515 81.5847 63.5703 82.1667 60.5045 82.1667ZM60.5006 78.6668C65.7117 78.6668 70.1256 76.8584 73.7423 73.2418C77.3589 69.6251 79.1673 65.2112 79.1673 60.0001C79.1673 54.789 77.3589 50.3751 73.7423 46.7584C70.1256 43.1418 65.7117 41.3334 60.5006 41.3334C55.2895 41.3334 50.8756 43.1418 47.2589 46.7584C43.6423 50.3751 41.8339 54.789 41.8339 60.0001C41.8339 65.2112 43.6423 69.6251 47.2589 73.2418C50.8756 76.8584 55.2895 78.6668 60.5006 78.6668Z" fill="#FDFDFD"/>
</svg>
