<svg width="360" height="384" viewBox="0 0 360 384" fill="none" xmlns="http://www.w3.org/2000/svg">
<rect width="360" height="384" rx="11" fill="#F6F8FF"/>
<path fill-rule="evenodd" clip-rule="evenodd" d="M118 226H209C209.515 226 210.017 225.944 210.5 225.839C210.983 225.944 211.485 226 212 226H264C267.866 226 271 222.866 271 219C271 215.134 267.866 212 264 212H258C254.134 212 251 208.866 251 205C251 201.134 254.134 198 258 198H277C280.866 198 284 194.866 284 191C284 187.134 280.866 184 277 184H255C258.866 184 262 180.866 262 177C262 173.134 258.866 170 255 170H191C194.866 170 198 166.866 198 163C198 159.134 194.866 156 191 156H134C130.134 156 127 159.134 127 163C127 166.866 130.134 170 134 170H94C90.134 170 87 173.134 87 177C87 180.866 90.134 184 94 184H119C122.866 184 126 187.134 126 191C126 194.866 122.866 198 119 198H79C75.134 198 72 201.134 72 205C72 208.866 75.134 212 79 212H118C114.134 212 111 215.134 111 219C111 222.866 114.134 226 118 226ZM281 226C284.866 226 288 222.866 288 219C288 215.134 284.866 212 281 212C277.134 212 274 215.134 274 219C274 222.866 277.134 226 281 226Z" fill="#F6F8FF"/>
<path fill-rule="evenodd" clip-rule="evenodd" d="M147 232C134.85 232 125 222.374 125 210.5C125 198.626 134.85 189 147 189C147.517 189 148.029 189.017 148.537 189.052C148.184 187.088 148 185.065 148 183C148 164.222 163.222 149 182 149C196.991 149 209.716 158.702 214.239 172.169C215.31 172.057 216.398 172 217.5 172C234.345 172 248 185.431 248 202C248 217.741 235.675 230.727 220 231.978V232H163.508H147ZM158.996 232H152.031H158.996Z" fill="#FDFEFF"/>
<path d="M158.996 232H152.031M147 232C134.85 232 125 222.374 125 210.5C125 198.626 134.85 189 147 189C147.517 189 148.029 189.017 148.537 189.052C148.184 187.088 148 185.065 148 183C148 164.222 163.222 149 182 149C196.991 149 209.716 158.702 214.239 172.169C215.31 172.057 216.398 172 217.5 172C234.345 172 248 185.431 248 202C248 217.741 235.675 230.727 220 231.978V232H163.508H147Z" stroke="#2F88CE" stroke-width="2.5" stroke-linecap="round"/>
<path fill-rule="evenodd" clip-rule="evenodd" d="M171.612 156.343C171.612 188.566 200.633 215.118 238 218.703C233.317 224.461 226.086 228.368 217.847 228.981V229H150.743C142.601 229 129 225.57 129 210.548C129 195.527 139.574 192.097 150.743 192.097C151.218 192.097 151.689 192.112 152.156 192.141C151.832 190.456 151.775 188.718 151.662 186.947C150.904 174.984 156.123 159.907 171.63 155C171.618 155.447 171.612 155.894 171.612 156.343ZM182.116 206.758C179.078 206.758 176.614 209.192 176.614 212.195C176.614 215.198 179.078 217.632 182.116 217.632C185.155 217.632 187.618 215.198 187.618 212.195C187.618 209.192 185.155 206.758 182.116 206.758Z" fill="#F6F8FF"/>
<path d="M182.5 218C185.538 218 188 215.538 188 212.5C188 209.462 185.538 207 182.5 207C179.462 207 177 209.462 177 212.5C177 215.538 179.462 218 182.5 218Z" stroke="#2F88CE" stroke-width="2.5"/>
<path d="M167 201L174 195.507L167 190.278" stroke="#2F88CE" stroke-width="2.5" stroke-linecap="round" stroke-linejoin="round"/>
<path d="M198 201L191 195.507L198 190.278" stroke="#2F88CE" stroke-width="2.5" stroke-linecap="round" stroke-linejoin="round"/>
<path d="M192.001 159C198.51 160.723 203.649 165.813 205.441 172.293" stroke="#2F88CE" stroke-width="2.5" stroke-linecap="round"/>
<path d="M213 142C214.657 142 216 140.657 216 139C216 137.343 214.657 136 213 136C211.343 136 210 137.343 210 139C210 140.657 211.343 142 213 142Z" stroke="#2F88CE" stroke-width="2"/>
<path d="M244 158C245.657 158 247 156.657 247 155C247 153.343 245.657 152 244 152C242.343 152 241 153.343 241 155C241 156.657 242.343 158 244 158Z" fill="#2F88CE"/>
<path d="M220.758 149.757L229.116 158.116M229.243 149.757L220.885 158.116L229.243 149.757Z" stroke="#2F88CE" stroke-width="2.5" stroke-linecap="round" stroke-linejoin="round"/>
<path d="M126.402 167.596L132.402 173.596M132.402 167.596L126.402 173.596L132.402 167.596Z" stroke="#2F88CE" stroke-width="2.5" stroke-linecap="round" stroke-linejoin="round"/>
<path d="M140 161C141.657 161 143 159.657 143 158C143 156.343 141.657 155 140 155C138.343 155 137 156.343 137 158C137 159.657 138.343 161 140 161Z" fill="#2F88CE"/>
</svg>
