<svg width="16" height="14" viewBox="0 0 16 14" fill="none" xmlns="http://www.w3.org/2000/svg">
<path d="M2.33923 13.6667C1.94673 13.6667 1.61148 13.5281 1.3335 13.2511C1.0555 12.9741 0.916504 12.64 0.916504 12.2489V1.75114C0.916504 1.35999 1.0555 1.0259 1.3335 0.748884C1.61148 0.471851 1.94673 0.333334 2.33923 0.333334H12.8734C13.2659 0.333334 13.6012 0.471851 13.8791 0.748884C14.1571 1.0259 14.2961 1.35999 14.2961 1.75114V3.88538H13.1156V1.75114C13.1156 1.68075 13.0929 1.62293 13.0475 1.57767C13.0021 1.53242 12.944 1.50979 12.8734 1.50979H2.33923C2.2686 1.50979 2.21057 1.53242 2.16516 1.57767C2.11975 1.62293 2.09704 1.68075 2.09704 1.75114V12.2489C2.09704 12.3193 2.11975 12.3771 2.16516 12.4223C2.21057 12.4676 2.2686 12.4902 2.33923 12.4902H12.8734C12.944 12.4902 13.0021 12.4676 13.0475 12.4223C13.0929 12.3771 13.1156 12.3193 13.1156 12.2489V10.1146H14.2961V12.2489C14.2961 12.64 14.1571 12.9741 13.8791 13.2511C13.6012 13.5281 13.2659 13.6667 12.8734 13.6667H2.33923ZM8.63555 10.5294C8.24304 10.5294 7.90779 10.3909 7.62981 10.1139C7.35182 9.83683 7.21282 9.50275 7.21282 9.1116V4.88841C7.21282 4.49726 7.35182 4.16317 7.62981 3.88615C7.90779 3.60911 8.24304 3.4706 8.63555 3.4706H13.6604C14.0529 3.4706 14.3882 3.60911 14.6662 3.88615C14.9442 4.16317 15.0832 4.49726 15.0832 4.88841V9.1116C15.0832 9.50275 14.9442 9.83683 14.6662 10.1139C14.3882 10.3909 14.0529 10.5294 13.6604 10.5294H8.63555ZM13.6604 9.35295C13.7311 9.35295 13.7891 9.33032 13.8345 9.28507C13.8799 9.23981 13.9026 9.18199 13.9026 9.1116V4.88841C13.9026 4.81801 13.8799 4.76019 13.8345 4.71493C13.7891 4.66968 13.7311 4.64705 13.6604 4.64705H8.63555C8.56491 4.64705 8.50689 4.66968 8.46147 4.71493C8.41606 4.76019 8.39336 4.81801 8.39336 4.88841V9.1116C8.39336 9.18199 8.41606 9.23981 8.46147 9.28507C8.50689 9.33032 8.56491 9.35295 8.63555 9.35295H13.6604ZM10.7545 8.17647C11.0824 8.17647 11.3612 8.06209 11.5907 7.83334C11.8203 7.60458 11.935 7.3268 11.935 7C11.935 6.6732 11.8203 6.39542 11.5907 6.16666C11.3612 5.93791 11.0824 5.82353 10.7545 5.82353C10.4265 5.82353 10.1478 5.93791 9.91825 6.16666C9.68869 6.39542 9.57392 6.6732 9.57392 7C9.57392 7.3268 9.68869 7.60458 9.91825 7.83334C10.1478 8.06209 10.4265 8.17647 10.7545 8.17647Z" fill="#172025"/>
</svg>
