<svg width="24" height="24" viewBox="0 0 24 24" fill="none" xmlns="http://www.w3.org/2000/svg">
<mask id="mask0_492_1080" style="mask-type:alpha" maskUnits="userSpaceOnUse" x="0" y="0" width="24" height="24">
<rect width="24" height="24" fill="#D9D9D9"/>
</mask>
<g mask="url(#mask0_492_1080)">
<path d="M9.00005 3V1H15V3H9.00005ZM10.0001 14.75L8.90005 12.55C8.81672 12.3667 8.69172 12.2292 8.52505 12.1375C8.35838 12.0458 8.18338 12 8.00005 12H3.05005C3.30005 9.75 4.27505 7.85417 5.97505 6.3125C7.67505 4.77083 9.68338 4 12 4C13.0334 4 14.0251 4.16667 14.975 4.5C15.9251 4.83333 16.8167 5.31667 17.6501 5.95L19.0501 4.55L20.4501 5.95L19.0501 7.35C19.5834 8.05 20.0084 8.7875 20.3251 9.5625C20.6417 10.3375 20.85 11.15 20.9501 12H16.6251L14.9001 8.55C14.7167 8.16667 14.4167 7.975 14 7.975C13.5834 7.975 13.2834 8.16667 13.1 8.55L10.0001 14.75ZM12 22C9.68338 22 7.67505 21.2292 5.97505 19.6875C4.27505 18.1458 3.30005 16.25 3.05005 14H7.37505L9.10005 17.45C9.28338 17.8333 9.58338 18.025 10.0001 18.025C10.4167 18.025 10.7167 17.8333 10.9 17.45L14 11.25L15.1001 13.45C15.1834 13.6333 15.3084 13.7708 15.4751 13.8625C15.6417 13.9542 15.8167 14 16.0001 14H20.9501C20.7001 16.25 19.7251 18.1458 18.0251 19.6875C16.3251 21.2292 14.3167 22 12 22Z" fill="#2F88CE"/>
</g>
</svg>
